<svg xmlns="http://www.w3.org/2000/svg" xmlns:xlink="http://www.w3.org/1999/xlink" viewBox="0 0 1200.96 1920.02">
  <defs>
    <clipPath id="a">
      <path d="M512.05,1894.06c-28.85-15-42.18-27.73-48.34-36.24a27.51,27.51,0,0,1-5.18-16.63l1.47-79a9.77,9.77,0,0,1,14.28-8.46l4.15,2.16a26.44,26.44,0,0,1,14.15,25.87c-1.76,19.32-3.82,49.35-3.39,62.65.64,20,24.5,34.19,24.5,34.19Z" fill="none"/>
    </clipPath>
    <clipPath id="b">
      <path d="M89.16,43.45C59.06,59.22,29.49,64,2.68,57.89-1.48,57,.66,16.15,9,11.26,36.46-4.86,116.56,1.68,135.82,1.41,143,1.3,93.7,41.07,89.16,43.45Z" fill="none"/>
    </clipPath>
    <clipPath id="c">
      <path d="M1197.3,1624.51c-2.61-19.52-29.58-27.87-39.72-47.38-30.7-59.09-15.9-127.6,33.06-153,2.28-1.19,7-5.76,6.95-3.22C1197.35,1479,1202,1660,1197.3,1624.51Z" fill="none"/>
    </clipPath>
    <clipPath id="d">
      <ellipse cx="317.51" cy="1729.36" rx="120.56" ry="99.89" transform="translate(-1335.42 1129.93) rotate(-59.66)" fill="none"/>
    </clipPath>
    <clipPath id="e">
      <path d="M702.5,218.63c3.24,35.4,10.61,54.16,16.68,63.91a30.12,30.12,0,0,0,14.68,12.13l80.57,31.2a10.69,10.69,0,0,0,14.47-10.95l-.47-5.1a28.92,28.92,0,0,0-20.33-25c-20.28-6.21-51.51-16.55-64.8-22.49-20-8.93-24.46-38.93-24.46-38.93Z" fill="none"/>
    </clipPath>
  </defs>
  <title>ic_back_form</title>
  <g style="isolation: isolate">
    <g>
      <g>
        <rect width="1200" height="1920" fill="#b6e4ec"/>
        <g>
          <g>
            <circle cx="175.87" cy="131" r="89.61" transform="translate(-41.12 162.73) rotate(-45)" fill="#fff" stroke="#fff" stroke-miterlimit="10" stroke-width="5"/>
            <circle cx="175.87" cy="131" r="89.61" transform="translate(-41.12 162.73) rotate(-45)" fill="#fff"/>
            <g>
              <path d="M199.86,145.37c-14.56-6.09-34.76.62-41.38,3.17C126,161,101.83,161.69,92.24,161.31A89.45,89.45,0,0,0,139,212C168.93,194.18,187.87,169.76,199.86,145.37Z" fill="#f6a93f"/>
              <path d="M235.56,113.3c10.31.88,19.54-2.68,25-9.56a89.3,89.3,0,0,0-34.4-46.08,216,216,0,0,1-6.63,50.86A43.28,43.28,0,0,0,235.56,113.3Z" fill="#f6a93f"/>
              <path d="M156.41,143.17c9.23-3.54,30-9.91,45.92-3,1.64-3.63,3.13-7.25,4.49-10.83-52.09-32.22-101.38-36-111.32-36.4a88.6,88.6,0,0,0-5.14,62.54C97.19,155.88,122.25,156.3,156.41,143.17Z" fill="#f6a93f"/>
              <path d="M208.82,123.78c1.46-4.25,2.74-8.44,3.86-12.53-11.46-7.2-21.48-19-28.56-34.24-10.85-23.31-32.6-29.46-36.53-30.4a88.45,88.45,0,0,0-49.21,40.7C113,88.27,159.6,93.68,208.82,123.78Z" fill="#f6a93f"/>
              <path d="M211.89,132.51q-2,5.15-4.41,10.45a28.85,28.85,0,0,1,3.24,2.58c12.31,11.3,14.41,32.93,6.28,64.3a89.54,89.54,0,0,0,39.1-40.44A247.26,247.26,0,0,0,211.89,132.51Z" fill="#f6a93f"/>
              <path d="M262.36,110.27c-6,5.73-14.38,8.91-23.7,8.91q-1.77,0-3.6-.15A48.54,48.54,0,0,1,218,114.17l-.17.65c-1.11,3.89-2.4,8-3.88,12.18a252.88,252.88,0,0,1,44.64,36.67,88.4,88.4,0,0,0,3.78-53.4Z" fill="#f6a93f"/>
              <path d="M157.61,43.91a60.94,60.94,0,0,1,31.72,30.68c6.29,13.51,15,24.08,24.88,30.77A209.12,209.12,0,0,0,220.33,54a88.36,88.36,0,0,0-44.46-12A90.49,90.49,0,0,0,157.61,43.91Z" fill="#f6a93f"/>
              <path d="M210.15,213.08c8.85-31.28,7.72-53.17-3.32-63.31a22.83,22.83,0,0,0-1.88-1.53c-11.62,23.4-30.06,48-59.32,66.42a88.88,88.88,0,0,0,64.52-1.58Z" fill="#f6a93f"/>
            </g>
          </g>
          <g>
            <path d="M1035.58,207.68a31.79,31.79,0,0,0-19-17.51L954.18,169A31.75,31.75,0,0,0,913,192.06l-.11.48L908.8,226a5.07,5.07,0,0,1-.09.54v0a7.79,7.79,0,0,1-3.92,5.31c-19.62,10.57-35.57,28.35-42.84,49.82a69.22,69.22,0,0,0-2.42,37.72c6.24,2.54,12.5,5,18.75,7.54,7.61.26,13.75,3.85,19.48,8.4a258.5,258.5,0,0,1,28.83,16.32c11.8,7.6,23.32,16.51,35.47,24.1a38.07,38.07,0,0,1,10.29,5.37c22.35-5.61,40.6-20.75,49-45.44,7.27-21.47,5.42-45.28-3.73-65.59a7.8,7.8,0,0,1,.12-6.61l0,0c.08-.17.17-.33.26-.49l16.83-28.64.45-.87A31.79,31.79,0,0,0,1035.58,207.68ZM1017.72,225,1009.46,239a8.43,8.43,0,0,1-12.87,2.09,76.32,76.32,0,0,0-57.49-19.48,8.43,8.43,0,0,1-8.94-9.48l2-16.19a12.14,12.14,0,0,1,6.29-7.79,12.66,12.66,0,0,1,9.83-.57L1010,208.53a12.64,12.64,0,0,1,7.46,6.43A12.11,12.11,0,0,1,1017.72,225Z" fill="#616261" stroke="#fef7e2" stroke-miterlimit="10" stroke-width="5"/>
            <path d="M1035.58,207.68a31.79,31.79,0,0,0-19-17.51L954.18,169A31.75,31.75,0,0,0,913,192.06l-.11.48L908.8,226a5.07,5.07,0,0,1-.09.54v0a7.79,7.79,0,0,1-3.92,5.31c-19.62,10.57-35.57,28.35-42.84,49.82a69.22,69.22,0,0,0-2.42,37.72c6.24,2.54,12.5,5,18.75,7.54,7.61.26,13.75,3.85,19.48,8.4a258.5,258.5,0,0,1,28.83,16.32c11.8,7.6,23.32,16.51,35.47,24.1a38.07,38.07,0,0,1,10.29,5.37c22.35-5.61,40.6-20.75,49-45.44,7.27-21.47,5.42-45.28-3.73-65.59a7.8,7.8,0,0,1,.12-6.61l0,0c.08-.17.17-.33.26-.49l16.83-28.64.45-.87A31.79,31.79,0,0,0,1035.58,207.68ZM1017.72,225,1009.46,239a8.43,8.43,0,0,1-12.87,2.09,76.32,76.32,0,0,0-57.49-19.48,8.43,8.43,0,0,1-8.94-9.48l2-16.19a12.14,12.14,0,0,1,6.29-7.79,12.66,12.66,0,0,1,9.83-.57L1010,208.53a12.64,12.64,0,0,1,7.46,6.43A12.11,12.11,0,0,1,1017.72,225Z" fill="#616261"/>
            <path d="M1035.58,207.68a31.79,31.79,0,0,0-19-17.51l-31.22-10.58-6.26,18.47L1010,208.53a12.64,12.64,0,0,1,7.46,6.43,12.11,12.11,0,0,1,.25,10L1009.46,239a8.43,8.43,0,0,1-12.87,2.09,76.8,76.8,0,0,0-26.72-15.7L927,351.94c11.67,7.55,23.06,16.35,35.08,23.85a38.07,38.07,0,0,1,10.29,5.37c22.35-5.61,40.6-20.75,49-45.44,7.27-21.47,5.42-45.28-3.73-65.59a7.8,7.8,0,0,1,.12-6.61l0,0a4.59,4.59,0,0,1,.26-.49l16.83-28.64.45-.87A31.79,31.79,0,0,0,1035.58,207.68Z" fill="#fff" opacity="0.28" style="mix-blend-mode: overlay"/>
          </g>
          <g>
            <path d="M228.51,1579.35l-9.82-6.2-2.15,2.41c-16.86-2.71-35.82-9.93-54.13-21.48s-33-25.56-42.71-39.61q.64-1.5,1.26-3l-9.82-6.19c-5.48,9.14-11.48,18.87-18.07,29.32-13.13,20.83-32.08,35.08-51.72,41-3.13,10-6.09,20.3-8.63,30.65-6.82,27.73-17.46,48.19-30,64.55v193c22.78-10.14,47.32-10.26,72,5.3a94.51,94.51,0,0,1,9.38,6.77c9.41-16.4,15.54-35.21,20-56.13,8.79-41,14.59-87.87,67-126.21a269.31,269.31,0,0,0,24-20.38c-3.27-20.43,1.41-43.93,14.68-65C216.41,1597.83,222.62,1588.23,228.51,1579.35Zm-111.92,33c-22.61-20.17-13.67-55.23-2.49-84.15A80.11,80.11,0,0,1,116.59,1612.39Zm13,8.12a80.11,80.11,0,0,1,76.81-34C184.86,1608.81,156.58,1631.45,129.56,1620.51Z" fill="#ee5450" stroke="#fff" stroke-miterlimit="10" stroke-width="5"/>
            <path d="M115,1615.07a79.94,79.94,0,0,1-17.75,19.84l20.32,12.82a80.09,80.09,0,0,1,98.82-59.19l7.61-12c-18.59-1.57-40.5-9.13-61.56-22.41s-37.31-29.8-46.73-45.9l-7.6,12A80.11,80.11,0,0,1,115,1615.07Z" fill="#558c48"/>
            <path d="M228.51,1579.35l-9.82-6.2c-23.71,26.7-61.45,65.62-96,43.85-35.87-22.63-15.73-72.66-1.76-105.5l-9.82-6.19c-5.48,9.14-11.48,18.87-18.07,29.32-13.13,20.83-32.08,35.08-51.72,41-3.13,10-6.09,20.3-8.63,30.65-6.82,27.73-17.46,48.19-30,64.55v193c22.78-10.14,47.32-10.26,72,5.3a94.51,94.51,0,0,1,9.38,6.77c9.41-16.4,15.54-35.21,20-56.13,8.79-41,14.59-87.87,67-126.21a269.31,269.31,0,0,0,24-20.38c-3.27-20.43,1.41-43.93,14.68-65C216.41,1597.83,222.62,1588.23,228.51,1579.35Z" fill="#7bb353"/>
            <path d="M228.51,1579.35l-9.82-6.2-2.15,2.41c-16.86-2.71-35.82-9.93-54.13-21.48s-33-25.56-42.71-39.61q.64-1.5,1.26-3l-9.82-6.19c-5.48,9.14-11.48,18.87-18.07,29.32-13.13,20.83-32.08,35.08-51.72,41-3.13,10-6.09,20.3-8.63,30.65-6.82,27.73-17.46,48.19-30,64.55v193c22.78-10.14,47.32-10.26,72,5.3a94.51,94.51,0,0,1,9.38,6.77c9.41-16.4,15.54-35.21,20-56.13,8.79-41,14.59-87.87,67-126.21a269.31,269.31,0,0,0,24-20.38c-3.27-20.43,1.41-43.93,14.68-65C216.41,1597.83,222.62,1588.23,228.51,1579.35Zm-111.92,33c-22.61-20.17-13.67-55.23-2.49-84.15A80.11,80.11,0,0,1,116.59,1612.39Zm13,8.12a80.11,80.11,0,0,1,76.81-34C184.87,1608.81,156.58,1631.45,129.56,1620.51Z" fill="none"/>
            <path d="M228.51,1579.35l-9.82-6.2-2.15,2.41c-16.86-2.71-35.82-9.93-54.13-21.48L2.68,1807.29v56.61c22.78-10.14,47.32-10.26,72,5.3a94.51,94.51,0,0,1,9.38,6.77c9.41-16.4,15.54-35.21,20-56.13,8.79-41,14.59-87.87,67-126.21a269.31,269.31,0,0,0,24-20.38c-3.27-20.43,1.41-43.93,14.68-65C216.41,1597.83,222.62,1588.23,228.51,1579.35Zm-98.95,41.16a80.11,80.11,0,0,1,76.81-34C184.87,1608.81,156.58,1631.45,129.56,1620.51Z" fill="#fff" opacity="0.28" style="mix-blend-mode: overlay"/>
            <g>
              <line x1="51.87" y1="1805.06" x2="78.37" y2="1821.77" fill="none" stroke="#fef7e2" stroke-linecap="round" stroke-linejoin="round" stroke-width="3"/>
              <line x1="42.99" y1="1817.45" x2="69.49" y2="1834.17" fill="none" stroke="#fef7e2" stroke-linecap="round" stroke-linejoin="round" stroke-width="3"/>
            </g>
          </g>
          <g>
            <path d="M437.75,7.61,385.88,42a7.92,7.92,0,0,0-2.22,11l13,19.62,13,19.61a7.9,7.9,0,0,0,11,2.23L475.87,57.8,478,61a19.17,19.17,0,0,0,26.57,5.38L563.29,27.4a19.18,19.18,0,0,0,8.18-19.79Z" fill="#fff" stroke="#fff" stroke-miterlimit="10" stroke-width="5"/>
            <g>
              <g>
                <path d="M437.75,7.61,382,44.55a3.29,3.29,0,0,0-.93,4.57l31.12,46.93a3.3,3.3,0,0,0,4.57.93L551.57,7.61Z" fill="#434343"/>
                <path d="M494.66,7.61l-98,65,13,19.61a7.9,7.9,0,0,0,11,2.23L551.57,7.61Z" fill="#fff" opacity="0.28" style="mix-blend-mode: overlay"/>
                <path d="M573.17,7.61H442.59l41.56,62.68a8,8,0,0,0,11.07,2.24l77.39-51.31a8,8,0,0,0,2.24-11.07Z" fill="#26a69a"/>
                <path d="M554.72,7.61H461L491,52.72a3.49,3.49,0,0,0,4.84,1L555,14.42a3.5,3.5,0,0,0,1-4.85Z" fill="#fef7e2"/>
                <path d="M480.8,7.61a86.13,86.13,0,0,0,.68,8.74c29.33,17,43.5,5.58,43.5,5.58a15.9,15.9,0,0,0,7.07-14.32Z" fill="#ee5450"/>
              </g>
              <path d="M494.66,7.61l-13.18,8.74c29.33,17,43.5,5.58,43.5,5.58a15.9,15.9,0,0,0,7.07-14.32Z" fill="#fff" opacity="0.28" style="mix-blend-mode: overlay"/>
            </g>
          </g>
          <g>
            <path d="M646,1916.06c.4.51.8,1,1.2,1.46H695a52.48,52.48,0,0,0-.64-5.33,50.5,50.5,0,0,0,23,.91A50.59,50.59,0,0,0,717,1890a50,50,0,0,0,21.3-1.26,51.66,51.66,0,0,0-4.42-28.39,51.66,51.66,0,0,0,28.51-3.49,49.93,49.93,0,0,0-4.58-20.83,50.46,50.46,0,0,0,22.3-5.94,50.47,50.47,0,0,0-7.13-21.83,51,51,0,0,0,23.86-8.67s-3.85-26.95-33.33-38.94-73.43-4.47-73.43-4.47a199.54,199.54,0,0,0,17.07,19.8,201.85,201.85,0,0,0-28.35-.83,199.18,199.18,0,0,0,14.83,21.62,201.45,201.45,0,0,0-27.63-3.08,204.07,204.07,0,0,0,16.29,27.66,204.2,204.2,0,0,0-31-8.13,200.42,200.42,0,0,0,10.5,25.74,199.92,199.92,0,0,0-24.85-8.37,201.09,201.09,0,0,0,8.52,27,199.88,199.88,0,0,0-23.69-11S626.44,1891,646,1916.06Z" fill="#f6a93f" stroke="#fff" stroke-miterlimit="10" stroke-width="5"/>
            <g>
              <line x1="556.6" y1="1731.14" x2="652.82" y2="1814.63" fill="none" stroke="#fff" stroke-miterlimit="10" stroke-width="3"/>
              <path d="M688.47,1876.68c-24.05-20.85-37.25-63.44-37.25-63.44s44,7.06,68.06,27.91,19,47.61,19,47.61S712.51,1897.53,688.47,1876.68Z" fill="#f6a93f"/>
            </g>
            <g>
              <line x1="549.92" y1="1742.14" x2="638.35" y2="1832.13" fill="none" stroke="#fff" stroke-miterlimit="10" stroke-width="3"/>
              <path d="M668.71,1896.92c-22.22-22.78-31.84-66.31-31.84-66.31s43.28,10.69,65.51,33.47,15,49,15,49S690.94,1919.7,668.71,1896.92Z" fill="#f6a93f"/>
            </g>
            <g>
              <line x1="546.05" y1="1748.95" x2="623" y2="1848.3" fill="none" stroke="#fff" stroke-miterlimit="10" stroke-width="3"/>
              <path d="M647.21,1917.52H695a55,55,0,0,0-11.94-30.38c-19.57-25.1-61.4-40.51-61.4-40.51s4.74,44.33,24.31,69.43C646.41,1916.57,646.81,1917,647.21,1917.52Z" fill="#f6a93f"/>
            </g>
            <g>
              <line x1="560.94" y1="1725.4" x2="667.76" y2="1794.87" fill="none" stroke="#fff" stroke-miterlimit="10" stroke-width="3"/>
              <path d="M737.17,1812.25c-26.62-17.44-71.19-18.54-71.19-18.54s18.79,40.43,45.41,57.88,51,5.29,51,5.29S763.79,1829.7,737.17,1812.25Z" fill="#f6a93f"/>
            </g>
            <g>
              <line x1="569.61" y1="1716.1" x2="680.65" y2="1776.18" fill="none" stroke="#fff" stroke-miterlimit="10" stroke-width="3"/>
              <path d="M751.27,1787.73c-28-15.18-72.49-12.56-72.49-12.56s22.09,38.73,50.06,53.9,51.25,1,51.25,1S779.24,1802.9,751.27,1787.73Z" fill="#f6a93f"/>
            </g>
            <g>
              <line x1="576.25" y1="1709.89" x2="692.03" y2="1757" fill="none" stroke="#fff" stroke-miterlimit="10" stroke-width="3"/>
              <path d="M763.49,1760.67c-29.48-12-73.43-4.47-73.43-4.47s26.23,36.06,55.72,48,51-4.63,51-4.63S793,1772.66,763.49,1760.67Z" fill="#f6a93f"/>
            </g>
            <path d="M663.34,1745.34s-21,14-36.35,34.24c-15.72,20.79-23,44.3-23,44.3" fill="none" stroke="#fff" stroke-miterlimit="10" stroke-width="3"/>
            <path d="M634,1733.34a123.93,123.93,0,0,0-30.33,28.57,134.2,134.2,0,0,0-19.22,37" fill="none" stroke="#fff" stroke-miterlimit="10" stroke-width="3"/>
            <line x1="801.54" y1="1801.52" x2="685.34" y2="1754.29" fill="none" stroke="#fff" stroke-linecap="square" stroke-miterlimit="10" stroke-width="3"/>
            <line x1="785.72" y1="1833.16" x2="673.15" y2="1772.11" fill="none" stroke="#fff" stroke-linecap="square" stroke-miterlimit="10" stroke-width="3"/>
            <line x1="771.13" y1="1862.63" x2="659" y2="1789.13" fill="none" stroke="#fff" stroke-linecap="square" stroke-miterlimit="10" stroke-width="3"/>
            <line x1="745.93" y1="1895.4" x2="645.17" y2="1807.99" fill="none" stroke="#fff" stroke-linecap="square" stroke-miterlimit="10" stroke-width="3"/>
            <path d="M709.18,1904.73c-25.15-25.85-50.15-51.85-76-78" fill="none" stroke="#fff" stroke-linecap="square" stroke-miterlimit="10" stroke-width="3"/>
            <path d="M667,1904.67c-15.92-20.79-31.92-40.79-47.73-61.22" fill="none" stroke="#fff" stroke-linecap="square" stroke-miterlimit="10" stroke-width="3"/>
            <path d="M507.2,1690.32h0a36.4,36.4,0,0,1,51-7.09l29,22s-16.73,12.65-26.5,25.58c-10,13.21-17.39,32.47-17.39,32.47l-29-21.94A36.39,36.39,0,0,1,507.2,1690.32Z" fill="#434343" stroke="#fff" stroke-miterlimit="10" stroke-width="5"/>
            <path d="M507.2,1690.32h0a36.4,36.4,0,0,1,51-7.09l29,22s-16.73,12.65-26.5,25.58c-10,13.21-17.39,32.47-17.39,32.47l-29-21.94A36.39,36.39,0,0,1,507.2,1690.32Z" fill="#434343"/>
            <path d="M572.4,1694s-16.73,12.65-26.51,25.58c-10,13.21-17.38,32.47-17.38,32.47" fill="none" stroke="#fff" stroke-linecap="square" stroke-linejoin="round" stroke-width="3.02"/>
          </g>
          <g>
            <path d="M1198,110.63a106,106,0,0,0-17.43-.62l-1-13.67a5.77,5.77,0,0,0-6.2-5.31l-5.4.41a5.77,5.77,0,0,0-5.31,6.19l1.12,14.57A105.8,105.8,0,0,0,1198,320.79Z" fill="#d3302f" stroke="#fff" stroke-miterlimit="10" stroke-width="5"/>
            <g>
              <g>
                <rect x="1163.75" y="91.17" width="16.95" height="42.78" rx="1.85" ry="1.85" transform="translate(2349.63 135.2) rotate(175.62)" fill="#434343"/>
                <g>
                  <path d="M1198,110.61a105.82,105.82,0,1,0,0,210.18Z" fill="#434343"/>
                  <path d="M1198,133a83.67,83.67,0,1,0,0,165.47Z" fill="#fef7e2"/>
                  <path d="M1198,193.4l-63.82,114.8A105.21,105.21,0,0,0,1198,320.79Z" fill="#fff" opacity="0.38" style="mix-blend-mode: overlay"/>
                </g>
                <path d="M1196.13,221.59a12.1,12.1,0,1,1-4.7-16.45A12.09,12.09,0,0,1,1196.13,221.59Z" fill="#434343"/>
              </g>
              <g>
                <path d="M1120.64,212.31a4.71,4.71,0,1,0,4.81,4.61A4.71,4.71,0,0,0,1120.64,212.31Z" fill="#d3302f"/>
                <path d="M1127.63,245.18a4.68,4.68,0,0,0-1.61,6.45,4.62,4.62,0,0,0,1.73,1.7,4.71,4.71,0,1,0-.12-8.15Z" fill="#d3302f"/>
                <path d="M1126.47,188.61h0a4.71,4.71,0,1,0,4.53-8.26,4.71,4.71,0,0,0-4.54,8.25Z" fill="#d3302f"/>
                <path d="M1156.48,268.33a4.71,4.71,0,1,0-4.58,8.23h0a4.71,4.71,0,0,0,4.56-8.24Z" fill="#d3302f"/>
                <path d="M1186.62,275.82a4.71,4.71,0,1,0,4.8,4.63A4.7,4.7,0,0,0,1186.62,275.82Z" fill="#d3302f"/>
                <path d="M1154.37,164.32a4.71,4.71,0,1,0-6.47-1.59,4.71,4.71,0,0,0,6.47,1.59Z" fill="#d3302f"/>
                <path d="M1188.8,150.79a4.71,4.71,0,1,0-7,4.22,4.83,4.83,0,0,0,2.4.6A4.7,4.7,0,0,0,1188.8,150.79Z" fill="#d3302f"/>
              </g>
            </g>
          </g>
          <g>
            <path d="M594.69,115.14l.94-12.08a4.79,4.79,0,0,0-4.4-5.15l-4.48-.35a4.8,4.8,0,0,0-5.14,4.4l-.88,11.35a87.18,87.18,0,0,0-40.55,7.75l-3-5.41a22.08,22.08,0,1,0-12.3,6.82l3,5.41a87.34,87.34,0,0,0-28.07,30.26l-10.09-5.27a4.78,4.78,0,0,0-6.45,2l-2.08,4a4.78,4.78,0,0,0,2,6.45L494,171a87.79,87.79,0,1,0,100.72-55.81Zm-85.51-7.89a13.39,13.39,0,1,1,23.38.06l-4.71-8.51a4.78,4.78,0,0,0-6.5-1.86l-3.93,2.17a4.79,4.79,0,0,0-1.87,6.51l4.71,8.5A13.37,13.37,0,0,1,509.18,107.25Z" fill="#d3302f" stroke="#fff" stroke-miterlimit="10" stroke-width="5"/>
            <g>
              <g>
                <path d="M531.6,120.08a22.09,22.09,0,1,1,8.62-30A22.1,22.1,0,0,1,531.6,120.08ZM514.4,89a13.4,13.4,0,1,0,18.21,5.23A13.41,13.41,0,0,0,514.4,89Z" fill="#434343"/>
                <rect x="520.95" y="95.8" width="14.06" height="35.5" rx="1.54" ry="1.54" transform="translate(11.12 270.12) rotate(-28.99)" fill="#ee5450"/>
                <g>
                  <rect x="580.58" y="97.68" width="14.06" height="35.5" rx="1.54" ry="1.54" transform="translate(10.76 -45.37) rotate(4.46)" fill="#ee5450"/>
                  <rect x="490.93" y="147.36" width="14.06" height="35.5" rx="1.54" ry="1.54" transform="translate(874.7 -199.99) rotate(117.56)" fill="#ee5450"/>
                </g>
                <g>
                  <circle cx="576.44" cy="201" r="87.8" transform="translate(-10.1 31.72) rotate(-3.12)" fill="#ee5450"/>
                  <circle cx="576.44" cy="201" r="69.43" transform="translate(-19.71 332.5) rotate(-31.66)" fill="#fef7e2"/>
                  <path d="M533.88,124.2A87.8,87.8,0,0,1,619,277.79" fill="#fff" opacity="0.38" style="mix-blend-mode: overlay"/>
                </g>
                <g>
                  <path d="M585.22,196.13a10,10,0,1,1-13.65-3.91A10,10,0,0,1,585.22,196.13Z" fill="#434343"/>
                  <line x1="576.44" y1="201" x2="556.87" y2="165.69" fill="none" stroke="#434343" stroke-linecap="round" stroke-linejoin="round" stroke-width="3"/>
                  <line x1="576.44" y1="201" x2="607.88" y2="200.12" fill="none" stroke="#434343" stroke-linecap="round" stroke-linejoin="round" stroke-width="5"/>
                </g>
              </g>
              <path d="M599.2,249.89a3.92,3.92,0,0,1,1.52-5.33h0a3.9,3.9,0,0,1,5.3,1.51h0a3.9,3.9,0,0,1-1.5,5.32h0A3.92,3.92,0,0,1,599.2,249.89Zm-23.6,8.79a3.88,3.88,0,0,1-3.84-4h0a3.91,3.91,0,0,1,4-3.85h0a3.9,3.9,0,0,1,3.84,4h0a3.86,3.86,0,0,1-2,3.36h0A3.79,3.79,0,0,1,575.6,258.68Zm45-26.7a3.91,3.91,0,0,1-1.36-5.35h0a3.93,3.93,0,0,1,5.37-1.35h0a3.92,3.92,0,0,1,1.34,5.37h0a3.85,3.85,0,0,1-1.45,1.41h0A3.89,3.89,0,0,1,620.58,232Zm-73.67,18.58h0a3.9,3.9,0,0,1-1.36-5.35h0a3.92,3.92,0,0,1,5.36-1.36h0a3.92,3.92,0,0,1,1.36,5.35h0a3.92,3.92,0,0,1-1.47,1.42h0A3.89,3.89,0,0,1,546.91,250.56Zm83.24-44.74a3.92,3.92,0,0,1-3.83-4h0a3.88,3.88,0,0,1,4-3.83h0a3.91,3.91,0,0,1,3.84,4h0a3.92,3.92,0,0,1-2,3.35h0A4.16,4.16,0,0,1,630.15,205.82Zm-104,23.37a3.88,3.88,0,0,1,1.49-5.31h0a3.93,3.93,0,0,1,5.32,1.48h0a3.94,3.94,0,0,1-1.49,5.34h0A3.88,3.88,0,0,1,526.12,229.19Zm93.93-52.37c0-.06-.06-.14-.11-.22h0a.93.93,0,0,0-.11-.19h0a3.9,3.9,0,0,1,1.48-5.32h0a3.88,3.88,0,0,1,5.31,1.47h0l.12.22h0l.16.25h0a3.91,3.91,0,0,1-1.52,5.31h0A3.92,3.92,0,0,1,620.05,176.82Zm-97.44,27.43a3.9,3.9,0,0,1-3.86-4h0a3.9,3.9,0,0,1,4-3.85h0a3.91,3.91,0,0,1,3.85,4h0a3.89,3.89,0,0,1-2,3.37h0A3.81,3.81,0,0,1,522.61,204.25ZM601.78,158h0a3.91,3.91,0,0,1-1.38-5.36h0a3.9,3.9,0,0,1,5.34-1.39h0a3.93,3.93,0,0,1,1.4,5.36h0a4.13,4.13,0,0,1-1.47,1.44h0A3.9,3.9,0,0,1,601.78,158Zm-73.6,18.91a3.9,3.9,0,0,1-1.37-5.35h0a3.89,3.89,0,0,1,5.34-1.37h0a3.9,3.9,0,0,1,1.38,5.35h0a4,4,0,0,1-1.48,1.42h0A3.88,3.88,0,0,1,528.18,176.94Zm48.74-25.83a3.91,3.91,0,0,1-3.87-4h0a3.91,3.91,0,0,1,4-3.86h0a3.92,3.92,0,0,1,3.87,3.95h0a3.93,3.93,0,0,1-2,3.38h0A3.84,3.84,0,0,1,576.92,151.11Zm-30.29,5a3.93,3.93,0,0,1,1.49-5.33h0a3.88,3.88,0,0,1,5.31,1.49h0a3.9,3.9,0,0,1-1.48,5.32h0A3.92,3.92,0,0,1,546.63,156.07Z" fill="#d3302f"/>
            </g>
          </g>
          <g>
            <path d="M512.05,1894.06l45.16,23.46h31.43l-74.95-38.94s-23.86-14.16-24.5-34.19c-.43-13.3,1.63-43.33,3.39-62.65a26.44,26.44,0,0,0-14.15-25.87l-4.15-2.16a9.77,9.77,0,0,0-14.28,8.46l-1.47,79a27.51,27.51,0,0,0,5.18,16.63C469.87,1866.33,483.2,1879.06,512.05,1894.06Z" fill="#6d4c42" stroke="#fff" stroke-miterlimit="10" stroke-width="5"/>
            <path d="M512.05,1894.06l45.16,23.46h31.43l-74.95-38.94s-23.86-14.16-24.5-34.19c-.43-13.3,1.63-43.33,3.39-62.65a26.44,26.44,0,0,0-14.15-25.87l-4.15-2.16a9.77,9.77,0,0,0-14.28,8.46l-1.47,79a27.51,27.51,0,0,0,5.18,16.63C469.87,1866.33,483.2,1879.06,512.05,1894.06Z" fill="#6d4c42"/>
            <g clip-path="url(#a)">
              <g>
                <rect x="453.26" y="1772.12" width="44.97" height="4.96" transform="translate(-46.63 13.16) rotate(-1.51)" fill="#01838f"/>
                <rect x="472.23" y="1764.36" width="4.96" height="43.06" transform="translate(-1372.2 1846.5) rotate(-76.99)" fill="#01838f"/>
                <rect x="471.83" y="1770.96" width="4.96" height="44.43" transform="translate(-1363.93 2040.8) rotate(-82.86)" fill="#01838f"/>
                <rect x="474.83" y="1778.68" width="4.96" height="43.59" transform="translate(-1385.35 1806.74) rotate(-75.35)" fill="#01838f"/>
                <rect x="471.72" y="1790.2" width="4.96" height="38.03" transform="translate(-1370.67 2116.76) rotate(-84.78)" fill="#01838f"/>
                <rect x="470.44" y="1794.31" width="4.96" height="47.14" transform="translate(-1388.19 2072.04) rotate(-83.19)" fill="#01838f"/>
                <rect x="470.3" y="1805.45" width="4.96" height="42.28" transform="translate(-1382.56 2169.57) rotate(-85.96)" fill="#01838f"/>
                <rect x="469.69" y="1812.77" width="4.96" height="48.11" transform="translate(-1423.63 1889.66) rotate(-77.18)" fill="#01838f"/>
              </g>
            </g>
          </g>
          <g>
            <path d="M264,356.38l-3.71,2h.37l3.34-1.27Z" fill="#616261" stroke="#fff" stroke-miterlimit="10" stroke-width="5"/>
            <path d="M280.17,336.57c8.56-4.19,17.38-8.45,26.59-11a42.59,42.59,0,0,1,6.45-1.35c-7.49-13.83-25.28-32.13-48.62-48.7-36-25.56-71.55-37.33-79.4-26.28h0l-.56-.39-19.41,27.34c-7.91,11.14,15.11,41.08,51.42,66.86a249.75,249.75,0,0,0,23.43,14.79C253.59,351.41,266.79,343.13,280.17,336.57Z" fill="#616261" stroke="#fff" stroke-miterlimit="10" stroke-width="5"/>
            <path d="M275.62,350.07h5.88c3.12-1.37,6.35-2.78,9.58-4.31a5.32,5.32,0,0,1,.56-1,38.7,38.7,0,0,1,3.47-4.23c-5.45,2.4-10.79,5.08-16.09,7.77C277.88,348.88,276.75,349.48,275.62,350.07Z" fill="#616261" stroke="#fff" stroke-miterlimit="10" stroke-width="5"/>
            <g>
              <path d="M264,356.38l-3.71,2h.37l3.34-1.27Z" fill="#434343"/>
              <path d="M275.62,350.07h5.88c3-1.32,6.1-2.68,9.21-4.14-.57-.83-1.17-1.68-1.8-2.53-3.32,1.59-6.62,3.24-9.89,4.9C277.88,348.88,276.75,349.48,275.62,350.07Z" fill="#434343"/>
              <path d="M280.17,336.57l2.32-1.13c-9.23-10.53-22-22-37.19-32.76C209,276.9,173.13,265,165.22,276.18s15.11,41.08,51.42,66.86a249.75,249.75,0,0,0,23.43,14.79C253.59,351.41,266.79,343.13,280.17,336.57Z" fill="#434343"/>
              <path d="M275.62,350.07h5.88c3.12-1.37,6.35-2.78,9.58-4.31a5.32,5.32,0,0,1,.56-1,38.7,38.7,0,0,1,3.47-4.23c-5.45,2.4-10.79,5.08-16.09,7.77C277.88,348.88,276.75,349.48,275.62,350.07Z" fill="#434343"/>
              <path d="M280.17,336.57c5.57-2.73,11.25-5.48,17.08-7.77l-112.62-80-19.41,27.34,97.84,69.47C268.76,342.49,274.45,339.37,280.17,336.57Z" fill="#434343"/>
              <path d="M292.15,344.09a37.73,37.73,0,0,1,3-3.56c-2,.88-4,1.8-5.92,2.74C290.2,343.57,291.18,343.84,292.15,344.09Z" fill="#616261"/>
              <path d="M276.3,338.52c1.29-.66,2.58-1.32,3.87-1.95,8.56-4.19,17.38-8.45,26.59-11a42.59,42.59,0,0,1,6.45-1.35c-7.49-13.83-25.28-32.13-48.62-48.7-36-25.56-71.55-37.33-79.4-26.28s15,40.74,51,66.3A222.5,222.5,0,0,0,276.3,338.52Z" fill="#616261"/>
            </g>
          </g>
          <g>
            <g>
              <path d="M106.66,317.19a82,82,0,0,0-104-7.82V443.26a81.94,81.94,0,0,0,104-126.07Z" fill="#7bb353" stroke="#fff" stroke-miterlimit="10" stroke-width="5"/>
              <circle cx="95.28" cy="370.46" r="12.53" transform="translate(-235.07 177.63) rotate(-45.3)" fill="#434343" stroke="#fff" stroke-miterlimit="10" stroke-width="5"/>
              <path d="M52.18,402.86a12.53,12.53,0,1,1,17.71-.36A12.53,12.53,0,0,1,52.18,402.86Z" fill="#434343" stroke="#fff" stroke-miterlimit="10" stroke-width="5"/>
              <path d="M43.56,345.56a12.53,12.53,0,1,1,17.72-.36A12.53,12.53,0,0,1,43.56,345.56Z" fill="#434343" stroke="#fff" stroke-miterlimit="10" stroke-width="5"/>
            </g>
            <g>
              <path d="M106.66,317.19a82,82,0,0,0-104-7.82V443.26a81.94,81.94,0,0,0,104-126.07Z" fill="#7bb353"/>
              <circle cx="95.28" cy="370.46" r="12.53" transform="translate(-235.07 177.63) rotate(-45.3)" fill="#434343"/>
              <path d="M52.18,402.86a12.53,12.53,0,1,1,17.71-.36A12.53,12.53,0,0,1,52.18,402.86Z" fill="#434343"/>
              <path d="M43.56,345.56a12.53,12.53,0,1,1,17.72-.36A12.53,12.53,0,0,1,43.56,345.56Z" fill="#434343"/>
            </g>
            <path d="M106.66,317.19a82,82,0,0,0-104-7.82v17.36a90,90,0,0,1,96.09-11.26,91,91,0,0,1,14.33,8.67A85.63,85.63,0,0,0,106.66,317.19Z" fill="#fff" opacity="0.38" style="mix-blend-mode: overlay"/>
          </g>
          <g>
            <path d="M1198,1695.47a102.19,102.19,0,1,0,0,197.81Z" fill="#fff" stroke="#fff" stroke-miterlimit="10" stroke-width="6"/>
            <path d="M1198,1695.47a102.19,102.19,0,1,0,0,197.81Z" fill="#fff"/>
            <path d="M1074.48,1781.13a98.28,98.28,0,0,0,20,73.84,98.58,98.58,0,0,0,18.91-139.72A98.29,98.29,0,0,0,1074.48,1781.13Z" fill="none" stroke="#e63935" stroke-miterlimit="10" stroke-width="3"/>
            <path d="M1086.61,1845.09a86.35,86.35,0,0,0,16.56-122.39" fill="none" stroke="#e63935" stroke-miterlimit="10" stroke-width="1.33"/>
            <path d="M1198,1698.58a100.91,100.91,0,0,0-12.43-2.51,99.19,99.19,0,1,0,12.43,194.1Z" fill="none" stroke="#37474f" stroke-miterlimit="10" stroke-width="3"/>
          </g>
          <g>
            <path d="M879.3,1607c-15.63,6.46-32.48,10.1-48.8,14.39-17.71,4.66-35.5,9.07-53.41,12.9-13.61,2.91-27.31,5.48-41.09,7.56.26,4.18-5.42,7.37-8.52,3.85-.67-.76-1.34-1.55-2-2.37-12.46,1.63-25,2.8-37.51,3.39.44,3.66-3.93,6.37-7.26,4.83a126.74,126.74,0,0,0,237.67-66.89A173.29,173.29,0,0,1,879.3,1607Z" fill="#fff" stroke="#fff" stroke-miterlimit="10" stroke-width="5"/>
            <g>
              <path d="M879.3,1607c-15.63,6.46-32.48,10.1-48.8,14.39-17.71,4.66-35.5,9.07-53.41,12.9-13.61,2.91-27.31,5.48-41.09,7.56.26,4.18-5.42,7.37-8.52,3.85-.67-.76-1.34-1.55-2-2.37-12.45,1.63-25,2.8-37.49,3.39a4.62,4.62,0,0,1-2.39,4.47,122.29,122.29,0,0,0,228.45-63.34A174.54,174.54,0,0,1,879.3,1607Z" fill="#fff"/>
              <g>
                <path d="M879.3,1607c-15.63,6.46-32.48,10.1-48.8,14.39-17.71,4.66-35.5,9.07-53.41,12.9-13.61,2.91-27.31,5.48-41.09,7.56.26,4.18-5.42,7.37-8.52,3.85-.67-.76-1.34-1.55-2-2.37-12.45,1.63-25,2.8-37.49,3.39a4.62,4.62,0,0,1-2.39,4.47,122.29,122.29,0,0,0,228.45-63.34A174.54,174.54,0,0,1,879.3,1607Z" fill="none" stroke="#37474f" stroke-miterlimit="10" stroke-width="3"/>
                <path d="M695.57,1666s15.09,8.91,31.8,13.38c0,0,14.25,16.18,27.19,20.53l-.78,6.89S711.58,1691.47,695.57,1666Z" fill="#434343"/>
                <path d="M777.09,1634.25c-13.61,2.9-27.31,5.48-41.09,7.56a4.7,4.7,0,0,1-1,3.15c2.47,5.43,4.26,9,4.26,9a205.07,205.07,0,0,0,60.07-1.2l8.39-25.61C797.54,1629.66,787.34,1632.06,777.09,1634.25Z" fill="#434343"/>
                <path d="M839.83,1703s-11.24-.46-19.25-6.15c0,0,13.42-9.39,15.33-21.79,0,0,44.12-17.63,46.43-27.11,0,0,5.18,18.81,3.53,20.75S856.64,1697.2,839.83,1703Z" fill="#434343"/>
                <path d="M899,1597.37c.14.26.28.51.41.77a21.83,21.83,0,0,0,7.56-5.55Q903.08,1595.1,899,1597.37Z" fill="#434343"/>
                <line x1="727.37" y1="1679.4" x2="739.26" y2="1653.96" fill="none" stroke="#37474f" stroke-linecap="square" stroke-miterlimit="10" stroke-width="3"/>
                <path d="M879.63,1655.26c10.4-17.38,15.4-36.38,20.45-55.62" fill="none" stroke="#37474f" stroke-linecap="square" stroke-miterlimit="10" stroke-width="3"/>
                <path d="M748.56,1700.86s41.24,11.22,79.88-6.28" fill="none" stroke="#37474f" stroke-linecap="square" stroke-miterlimit="10" stroke-width="3"/>
                <path d="M799.33,1652.76s10.67,10.28,36.58,22.3" fill="none" stroke="#37474f" stroke-linecap="square" stroke-miterlimit="10" stroke-width="3"/>
              </g>
            </g>
          </g>
          <g>
            <path d="M757.07,7.61a103,103,0,1,0,169.33,0Z" fill="#fff" stroke="#fff" stroke-miterlimit="10" stroke-width="5"/>
            <g>
              <path d="M761.49,7.61a99.42,99.42,0,1,0,160.5,0Z" fill="#fff"/>
              <g>
                <path d="M761.49,7.61a99.42,99.42,0,1,0,160.5,0Z" fill="none" stroke="#37474f" stroke-miterlimit="10" stroke-width="3"/>
                <path d="M753.25,21l6.18-2.71c-5.37,15-4.4,39.19-4.4,39.19-4.66,12.25-9.76,32.85-9.76,32.85S736,58.21,753.25,21Z" fill="#434343"/>
                <path d="M763.52,127.67a117.59,117.59,0,0,0,25.86,10.87s11.59,13.16,22.1,16.7l-.63,5.59S776.55,148.36,763.52,127.67Z" fill="#434343"/>
                <path d="M799,117.86S783.62,87,783.41,73.14c0,0,35.05-33.8,36.66-34.35L863.6,68.88l-15.72,48A166.71,166.71,0,0,1,799,117.86Z" fill="#434343"/>
                <path d="M880.8,157.73s-9.13-.37-15.65-5c0,0,10.91-7.63,12.46-17.71,0,0,35.87-14.33,37.75-22,0,0,4.21,15.29,2.88,16.87S894.47,153,880.8,157.73Z" fill="#434343"/>
                <path d="M924.18,10.72s-16.82-4.24-25.07-1.53c0,0,5.45,22.69,3,36.43,0,0,19,11,27.14,26.87,0,0,9.16-3.43,11.49-15.57C940.75,56.92,933.4,20.36,924.18,10.72Z" fill="#434343"/>
                <line x1="789.38" y1="138.54" x2="799.04" y2="117.86" fill="none" stroke="#37474f" stroke-linecap="square" stroke-miterlimit="10" stroke-width="3"/>
                <path d="M755,57.47s16.62,12.17,28.38,15.67" fill="none" stroke="#37474f" stroke-linecap="square" stroke-miterlimit="10" stroke-width="3"/>
                <path d="M819.47,42.93l3.23-22.37" fill="none" stroke="#37474f" stroke-miterlimit="10" stroke-width="3"/>
                <path d="M863.6,68.88s32.64-17.36,38.52-23.26" fill="none" stroke="#37474f" stroke-linecap="square" stroke-miterlimit="10" stroke-width="3"/>
                <path d="M913.16,118.92s12.14-18.34,18-52.46" fill="none" stroke="#37474f" stroke-linecap="square" stroke-miterlimit="10" stroke-width="3"/>
                <path d="M806.61,156s33.53,9.12,64.94-5.1" fill="none" stroke="#37474f" stroke-linecap="square" stroke-miterlimit="10" stroke-width="3"/>
                <path d="M847.88,116.89s8.67,8.36,29.73,18.13" fill="none" stroke="#37474f" stroke-linecap="square" stroke-miterlimit="10" stroke-width="3"/>
              </g>
            </g>
          </g>
          <g>
            <path d="M94.17,1425.36c-8.93-9.34-16.46-19.69-24.85-29.46-8.57-10-17.09-19.59-23.58-31.1-4.85-8.6-9.28-17.27-16.57-23.81a79,79,0,0,0-26.49,9v137.54a78.66,78.66,0,0,0,112.56-43.08A189.93,189.93,0,0,1,94.17,1425.36Z" fill="#fff" stroke="#fff" stroke-miterlimit="10" stroke-width="5"/>
            <g>
              <path d="M94.17,1425.36c-8.93-9.34-16.46-19.69-24.85-29.46-8.57-10-17.09-19.59-23.58-31.1-4.26-7.56-8.2-15.19-14-21.36a76,76,0,0,0-29,9.76v131.21a75.92,75.92,0,0,0,110.25-41.72A195.86,195.86,0,0,1,94.17,1425.36Z" fill="#fff"/>
              <g>
                <path d="M94.17,1425.36c-8.93-9.34-16.46-19.69-24.85-29.46-8.57-10-17.09-19.59-23.58-31.1-4.26-7.56-8.2-15.19-14-21.36a76,76,0,0,0-29,9.76v131.21a75.92,75.92,0,0,0,110.25-41.72A195.86,195.86,0,0,1,94.17,1425.36Z" fill="none" stroke="#37474f" stroke-miterlimit="10" stroke-width="3"/>
                <path d="M2.68,1475.87v8.23A110.19,110.19,0,0,0,17.29,1491l.48-4.27C11.93,1484.75,5.67,1478.91,2.68,1475.87Z" fill="#434343"/>
                <path d="M24.33,1397.77c-.85.29-13.65,12.48-21.65,20.14v27.94c2.85,6.85,5.59,12.32,5.59,12.32a127.27,127.27,0,0,0,37.3-.75l12-36.67Z" fill="#434343"/>
                <path d="M70.71,1488.62s-7-.28-11.95-3.82c0,0,8.33-5.83,9.52-13.52,0,0,27.4-11,28.83-16.84,0,0,3.22,11.68,2.19,12.88S81.15,1485,70.71,1488.62Z" fill="#434343"/>
                <path d="M45.74,1364.8c-4.15-7.36-8-14.78-13.59-20.86a83.24,83.24,0,0,0-21.54,5.22c-.36.14-4.08,9.71-4.24,14.24L28.19,1371l17.58-6.14Z" fill="#434343"/>
                <line x1="23.87" y1="1400.94" x2="28.64" y2="1367.83" fill="none" stroke="#37474f" stroke-miterlimit="10" stroke-width="3"/>
                <path d="M57.58,1420.75c6.67-3.56,13.28-7.22,19.76-11.13" fill="none" stroke="#37474f" stroke-linecap="square" stroke-miterlimit="10" stroke-width="3"/>
                <path d="M95.43,1459a83.57,83.57,0,0,0,8.59-19.26" fill="none" stroke="#37474f" stroke-linecap="square" stroke-miterlimit="10" stroke-width="3"/>
                <path d="M14.05,1487.29s25.6,7,49.59-3.9" fill="none" stroke="#37474f" stroke-linecap="square" stroke-miterlimit="10" stroke-width="3"/>
                <path d="M45.57,1457.42s6.62,6.39,22.71,13.86" fill="none" stroke="#37474f" stroke-linecap="square" stroke-miterlimit="10" stroke-width="3"/>
              </g>
            </g>
          </g>
          <g>
            <path d="M352.17,91.44a54.21,54.21,0,0,1-19-44.16c.66-11.36.08-22.83-3.15-31.6a77.08,77.08,0,0,0-3.5-8.07H269.84c-1.29,8.12-.23,17.91,3.8,28.85,3.23,8.76,10.24,17.86,18.11,26.07a54.23,54.23,0,0,1,14.19,46c-6.32,40.14-10.76,99.05,6,144.51,12.69,34.44,36.65,58.68,59.1,74.9l74-27.28c6.54-26.92,9-60.91-3.66-95.35C424.65,159.82,383,117.89,352.17,91.44Z" fill="#fff" stroke="#fff" stroke-miterlimit="10" stroke-width="8"/>
            <path d="M352.17,91.44a54.21,54.21,0,0,1-19-44.16c.66-11.36.08-22.83-3.15-31.6a77.08,77.08,0,0,0-3.5-8.07H269.84c-1.29,8.12-.23,17.91,3.8,28.85,3.23,8.76,10.24,17.86,18.11,26.07a54.23,54.23,0,0,1,14.19,46c-6.32,40.14-10.76,99.05,6,144.51,12.69,34.44,36.65,58.68,59.1,74.9l74-27.28c6.54-26.92,9-60.91-3.66-95.35C424.65,159.82,383,117.89,352.17,91.44Z" fill="#fff"/>
            <path d="M345,305.26A188.68,188.68,0,0,0,371,327.9l74-27.28a188.72,188.72,0,0,0,5.12-34.14Z" fill="#ee5450"/>
            <path d="M336,295.85,450.9,253.5q-.15-4.91-.63-9.92L330.05,287.9C332,290.65,334,293.29,336,295.85Z" fill="#ee5450"/>
            <path d="M292,62.83a52.79,52.79,0,0,1,9.31,13.62l33.57-12.37a53,53,0,0,1-1.76-16.41Z" fill="#01838f"/>
            <path d="M304.64,85.39a55,55,0,0,1,1.93,16.35l40.74-15A55.22,55.22,0,0,1,338.17,73Z" fill="#01838f"/>
            <path d="M327.17,247.38c-16.76-45.45-12.32-104.36-6-144.51A54.21,54.21,0,0,0,307,56.92c-7.87-8.21-14.88-17.31-18.11-26.08a63.18,63.18,0,0,1-4.3-23.23H269.84c-1.29,8.12-.23,17.91,3.8,28.85,3.23,8.76,10.24,17.86,18.11,26.07a54.23,54.23,0,0,1,14.19,46c-6.32,40.14-10.76,99.05,6,144.51,12.69,34.44,36.65,58.68,59.1,74.9l15.23-5.61C363.82,306.06,339.86,281.82,327.17,247.38Z" fill="#edeff0" style="mix-blend-mode: multiply"/>
            <path d="M352.17,91.44a54.21,54.21,0,0,1-19-44.16c.66-11.36.08-22.83-3.15-31.6a77.08,77.08,0,0,0-3.5-8.07H269.84c-1.29,8.12-.23,17.91,3.8,28.85,3.23,8.76,10.24,17.86,18.11,26.07a54.23,54.23,0,0,1,14.19,46c-6.32,40.14-10.76,99.05,6,144.51,12.69,34.44,36.65,58.68,59.1,74.9l74-27.28c6.54-26.92,9-60.91-3.66-95.35C424.65,159.82,383,117.89,352.17,91.44Z" fill="none" stroke="#37474f" stroke-miterlimit="10" stroke-width="3"/>
          </g>
          <g>
            <path d="M127.82,7.61A141.51,141.51,0,0,1,87.3,39.07C58.72,54,28.19,58.4,2.68,53.25v10c27.26,4.75,59.16-.14,89-15.78A150.66,150.66,0,0,0,140.3,7.61Z" fill="#434343" stroke="#fff" stroke-miterlimit="10" stroke-width="5"/>
            <g>
              <g clip-path="url(#b)">
                <g>
                  <g>
                    <path d="M102.1,37.27l-3.71,1.94h3.71Z" fill="#fff"/>
                    <path d="M10.63,60.09c7.16-3.59,14.74-7.42,22.61-11.43L55.11,37.45l22.51-11.7L100.06,13.9q5.94-3.18,11.76-6.29h-9.95l-4,2.07L75.33,21.38,52.9,33.23,31.23,44.82c-10,5.36-19.43,10.51-28.08,15.27Z" fill="#fff"/>
                    <path d="M47.4,7.61l-6.2,3.28L19.53,22.48Q10.82,27.17,2.68,31.6v4.27c6-3,12.35-6.23,18.86-9.54L43.41,15.11l14.43-7.5Z" fill="#fff"/>
                  </g>
                  <g>
                    <path d="M121.34,25.19v-1C118.72,18.94,116,13.39,113,7.61h-4.45c3.34,6.16,6.56,12.05,9.61,17.58Z" fill="#fff"/>
                    <path d="M100.64,39.21C95.9,29.62,90.52,18.93,84.77,7.61H79.92C86,19,91.85,29.65,97.13,39.21Z" fill="#fff"/>
                    <path d="M78.2,50.69C73.13,40.45,67.36,29,61.16,16.81l-4.72-9.2H51.32l6,11.22C63.49,30.3,69.37,41.09,74.7,50.74h3.5Z" fill="#fff"/>
                    <path d="M35,30.53c5.67,10.53,11.1,20.52,16.08,29.56h3.66c-4.79-9.65-10.16-20.32-15.9-31.58-3.48-6.78-7.07-13.78-10.71-20.9H22.73l.66,1.24Z" fill="#fff"/>
                    <path d="M22.32,60.09h4.22c-3.18-6.35-6.55-13-10-19.88L5.27,18.34l-2.59-5V23.6c3.39,6.33,6.72,12.57,10,18.63S19.2,54.37,22.32,60.09Z" fill="#fff"/>
                  </g>
                </g>
              </g>
              <path d="M127.82,7.61A141.51,141.51,0,0,1,87.3,39.07C58.72,54,28.19,58.4,2.68,53.25v10c27.26,4.75,59.16-.14,89-15.78A150.66,150.66,0,0,0,140.3,7.61Z" fill="#01838f"/>
            </g>
          </g>
          <g>
            <path d="M1198,1618.06a134.59,134.59,0,0,1-35.53-43.45C1133.18,1518.29,1147,1453,1193.16,1429c1.58-.82,3.18-1.56,4.8-2.26v-11.8a87.41,87.41,0,0,0-9.84,4.35c-51.56,26.79-67.43,98.75-35.4,160.41a143.68,143.68,0,0,0,45.24,52Z" fill="#434343" stroke="#fff" stroke-miterlimit="10" stroke-width="5"/>
            <g>
              <g clip-path="url(#c)">
                <g>
                  <g>
                    <path d="M1198,1615.3q-1.29-2.54-2.6-5.11c-6.84-13.26-14.13-27.41-21.42-41.56l-21.7-41.42-8.76-16.52c0,1.17-.08,2.35-.09,3.52l7.08,13.92c6.83,13.27,14.12,27.42,21.42,41.56l21.69,41.43,4.38,8.25Z" fill="#fff"/>
                    <path d="M1198,1561.19q-1-2-2-4c-3.7-7-7.39-14.09-11-21l-10.79-20.33c-7-13.16-13.66-25.41-19.43-35.86-1.4-2.56-2.76-5-4.05-7.34-.32,1-.63,2.11-.93,3.16.85,1.75,1.72,3.54,2.63,5.39,5.24,10.74,11.45,23.21,18.18,36.53l10.43,20.5,10.88,21.12,6.15,11.74Z" fill="#fff"/>
                    <path d="M1198,1510.45l-2.91-5.48c-7-13.16-13.67-25.41-19.44-35.87-5.27-9.62-9.87-17.69-13.21-23.66-.22.33-.43.65-.64,1,2.93,6.11,6.8,14.32,11.51,23.89,5.24,10.73,11.44,23.21,18.17,36.52,2.13,4.19,4.31,8.48,6.52,12.81Z" fill="#fff"/>
                    <path d="M1198,1460.76l-1.4-2.54c-5.74-10.47-10.69-19.11-14.08-25.2l-3-5.17-.33.25,2.5,5.34c3,6.27,7.25,15.29,12.52,26,1.2,2.45,2.45,5,3.75,7.63Z" fill="#fff"/>
                  </g>
                  <g>
                    <path d="M1198,1621.07l-2.83,1.56-1.18.64,1.28,2.25,1.12-.55,1.61-.79Z" fill="#fff"/>
                    <path d="M1198,1594.18c-4.83,2.62-9.43,5.14-13.71,7.5l-2.16,1.19,1.29,2.18,2.09-1,12.49-6.15Z" fill="#fff"/>
                    <path d="M1198,1567.35c-8.89,4.78-17.19,9.3-24.59,13.39l-3.35,1.84,1.27,2.12,3.3-1.62c7.1-3.47,15-7.37,23.37-11.56Z" fill="#fff"/>
                    <path d="M1198,1540.57c-13,7-25.12,13.51-35.48,19.22l-4.51,2.49,1.23,2.06,4.5-2.2c10.12-4.94,21.8-10.75,34.26-17Z" fill="#fff"/>
                    <path d="M1198,1513.85l-10.49,5.56c-13.17,7-25.41,13.67-35.87,19.44l-1.77,1c.19.85.38,1.7.58,2.55l2.41-1.18c10.73-5.24,23.2-11.44,36.52-18.18l8.62-4.38Z" fill="#fff"/>
                    <path d="M1198,1487.13l-1,.55-20.32,10.79c-12.06,6.43-23.34,12.54-33.19,18,0,1,.06,2,.11,3.06,10.37-5.08,22.27-11,35-17.41l19.5-9.92Z" fill="#fff"/>
                    <path d="M1198,1460.49l-11.93,6.25-20.32,10.78c-6.6,3.52-13,6.94-19,10.21-.31,1.43-.6,2.86-.88,4.28,6.87-3.41,14.15-7,21.73-10.89l20.5-10.42,9.88-5.09Z" fill="#fff"/>
                    <path d="M1198,1435.16l-1.24.64-40.36,21.13c-.41,1-.82,1.91-1.21,2.88l1.07-.54,41.56-21.42.18-.1Z" fill="#fff"/>
                  </g>
                </g>
              </g>
              <path d="M1198,1618.06a134.59,134.59,0,0,1-35.53-43.45C1133.18,1518.29,1147,1453,1193.16,1429c1.58-.82,3.18-1.56,4.8-2.26v-11.8a87.41,87.41,0,0,0-9.84,4.35c-51.56,26.79-67.43,98.75-35.4,160.41a143.68,143.68,0,0,0,45.24,52Z" fill="#7bb353"/>
            </g>
          </g>
          <g>
            <path d="M226.19,1917.52a38.16,38.16,0,0,1,5.33-5.82c14.23-12.59,58.17-49.74,98-65.53,30.71-8.82,59.88-31,78.94-63.6,35.1-60,22.86-132.64-27.28-162s-119.49-4.42-154.59,55.55c-19,32.55-24.12,68.83-16.79,99.9,5.46,43-5.19,99-9.13,117.56a38.78,38.78,0,0,1-4.45,11.46l-7.3,12.46ZM236,1681.67c32-54.77,94.68-77.94,139.61-51.64s55.42,92.25,23.37,147-94.69,77.93-139.62,51.63S204,1736.44,236,1681.67Zm-23.86,213.88c4.3-18.63,9.48-45,10.09-76.41a3.91,3.91,0,0,1,6.95-2.39,88.7,88.7,0,0,0,55.12,32.36,3.91,3.91,0,0,1,1.32,7.23c-26.82,15.77-47.23,33.25-61.46,46.24a3.86,3.86,0,0,1-4.57.48l-5.63-3.29A3.89,3.89,0,0,1,212.16,1895.55Z" fill="#434343" stroke="#fff" stroke-miterlimit="10" stroke-width="5"/>
            <g>
              <g clip-path="url(#d)">
                <g>
                  <g>
                    <path d="M247.2,1688.21c8-13.76,16-27.52,23.48-40.43l11.7-20.38-2.19.56L269,1646.77l-23.75,40.28-23.49,40.43-10.58,18.46c-.09,1.18-.16,2.38-.23,3.57l12.55-21C231,1715.64,239.12,1701.93,247.2,1688.21Z" fill="#fff"/>
                    <path d="M223.51,1775.78c6.28-10.15,13.53-22,21.21-34.84l11.79-19.76,12.06-20.46,11.93-20.54,11.44-20c7.4-13,14.22-25.1,20-35.56l2.45-4.41-3.24.67c-.49.79-1,1.59-1.49,2.41-6.28,10.15-13.53,22.05-21.21,34.84l-11.79,19.76-12.07,20.46c-4,6.88-8,13.76-11.93,20.53s-7.73,13.49-11.45,20c-7.39,13-14.21,25.11-20,35.56-2.76,5-5.26,9.54-7.49,13.65.21.78.42,1.55.64,2.32C217.09,1786.11,220.17,1781.2,223.51,1775.78Z" fill="#fff"/>
                    <path d="M243.88,1787.7c6.29-10.15,13.53-22,21.21-34.84l11.79-19.76,12.06-20.46c4-6.88,8-13.76,11.93-20.54s7.73-13.48,11.45-19.95c7.39-13,14.21-25.11,20-35.56,4.09-7.37,7.62-13.91,10.52-19.28l-1.52-.09c-3.19,5-7,11.12-11.29,18-6.28,10.15-13.53,22-21.21,34.85L297,1689.85,285,1710.31,273,1730.85l-11.45,20c-7.4,13-14.22,25.11-20,35.56s-10.47,19.23-13.82,25.34l-1.08,2,.49.55,1.37-2.13C232.24,1806.25,237.63,1797.87,243.88,1787.7Z" fill="#fff"/>
                    <path d="M264.25,1799.62c6.29-10.15,13.54-22,21.21-34.84L297.25,1745l12.06-20.46c4-6.88,8-13.76,11.93-20.54l11.45-20c7.39-13,14.21-25.11,20-35.56,5.56-10,10.08-18.5,13.39-24.57l-.84-.45c-3.66,5.86-8.85,14-14.83,23.68-6.29,10.15-13.54,22-21.22,34.85l-11.79,19.75-12.06,20.46c-4,6.88-8,13.76-11.93,20.54l-11.45,20c-7.4,13-14.22,25.11-20,35.56s-10.47,19.24-13.82,25.35l-2.73,5.14.37.2q1.31-2,3.14-4.89C252.61,1818.17,258,1809.8,264.25,1799.62Z" fill="#fff"/>
                    <path d="M284.62,1811.55c6.29-10.16,13.54-22,21.21-34.85l11.79-19.76,12.07-20.46,11.92-20.54,11.45-20c7.39-13,14.22-25.11,20-35.56,5.51-9.9,10-18.32,13.29-24.38l-.8-.53c-3.66,5.85-8.82,13.9-14.77,23.57-6.29,10.16-13.54,22.05-21.22,34.85-3.82,6.4-7.77,13-11.79,19.75l-12.06,20.46c-4,6.88-8,13.76-11.93,20.54l-11.45,20c-7.4,13-14.22,25.11-20,35.56s-10.47,19.24-13.81,25.35l-1.11,2.08.7.21c.38-.59.77-1.19,1.18-1.84C273,1830.09,278.37,1821.72,284.62,1811.55Z" fill="#fff"/>
                    <path d="M326.2,1788.62,338,1768.87l12.07-20.46c4-6.89,8-13.77,11.92-20.54l11.45-20c7.4-13,14.22-25.11,20-35.56,4.84-8.7,8.88-16.25,12-22.06l-.87-.74c-3.53,5.62-8.18,12.9-13.44,21.46-6.29,10.16-13.53,22-21.21,34.85l-11.8,19.75c-4,6.75-8,13.61-12.06,20.46s-8,13.77-11.93,20.54-7.74,13.48-11.45,20c-7.4,13-14.22,25.1-20,35.56-4.47,8-8.26,15.1-11.3,20.71l1.33.21c3.36-5.32,7.57-12,12.26-19.58C311.28,1813.31,318.53,1801.42,326.2,1788.62Z" fill="#fff"/>
                    <path d="M346.58,1800.54c3.82-6.4,7.77-13,11.79-19.75s8-13.61,12.06-20.46,8-13.77,11.93-20.54,7.73-13.49,11.44-20c7.4-13,14.22-25.11,20-35.56,3-5.44,5.74-10.42,8.12-14.82-.3-.56-.62-1.11-.94-1.66-2.8,4.43-6,9.51-9.46,15.15-6.29,10.15-13.53,22-21.21,34.84l-11.79,19.76L366.44,1758c-4,6.89-8,13.77-11.93,20.54l-11.45,20c-7.4,13-14.22,25.1-20,35.56-2.42,4.35-4.64,8.41-6.65,12.12l2.08.25c2.12-3.38,4.43-7.07,6.86-11C331.65,1825.24,338.9,1813.34,346.58,1800.54Z" fill="#fff"/>
                    <path d="M352.48,1833.3h.83l12.75-21.36,23.74-40.27,23.49-40.44c4.77-8.33,9.34-16.29,13.58-23.67.1-1.14.19-2.29.28-3.45-4.81,8-10.06,16.85-15.59,26.11l-23.75,40.28-23.48,40.43L348.77,1838c1-.61,1.89-1.24,2.83-1.88l.88-1.48Z" fill="#fff"/>
                  </g>
                  <g>
                    <path d="M304.72,1843.78,264.44,1820,224,1796.55l-9.41-5.4c.27.88.55,1.75.85,2.62l7.55,4.51L263.28,1822l38.42,22.32,5.07.65Z" fill="#fff"/>
                    <path d="M297.41,1810.73,277,1798.66l-20.54-11.92-20-11.45c-9.13-5.21-17.85-10.13-25.86-14.6,0,1.24,0,2.47,0,3.71,7.38,4.52,15.37,9.36,23.76,14.39l19.76,11.8,20.45,12.06,20.54,11.93,20,11.45c9.81,5.6,19.15,10.87,27.65,15.61,1-.57,2-1.15,3-1.75-8.67-5.34-18.34-11.21-28.62-17.37Z" fill="#fff"/>
                    <path d="M363.93,1823.36c-10.15-6.29-22.05-13.54-34.85-21.22l-19.75-11.78-20.46-12.07-20.54-11.92-20-11.45c-13-7.4-25.1-14.22-35.56-20l-.66-.37c-.1,1-.2,1.92-.29,2.88,10.07,6.24,21.82,13.4,34.46,21l19.76,11.79,20.46,12.07,20.53,11.93,20,11.45c13,7.4,25.1,14.22,35.56,20l1.53.85c.68-.59,1.37-1.17,2-1.77Z" fill="#fff"/>
                    <path d="M375.85,1803c-10.15-6.28-22.05-13.53-34.84-21.21L321.25,1770l-20.46-12.06L280.25,1746l-19.95-11.44c-13-7.4-25.11-14.22-35.57-20q-4.66-2.6-8.86-4.88c-.15.74-.29,1.48-.44,2.21q3.76,2.37,8,4.95c10.15,6.29,22,13.53,34.84,21.21L278,1749.84l20.46,12.07L319,1773.84,339,1785.29c13,7.39,25.11,14.21,35.56,20q3.57,2,6.87,3.78l0,0c.48-.56.94-1.14,1.41-1.71C380.61,1805.93,378.29,1804.48,375.85,1803Z" fill="#fff"/>
                    <path d="M387.77,1782.61c-10.15-6.28-22-13.53-34.84-21.21l-19.76-11.79-20.46-12.06-20.54-11.93-19.95-11.45c-13-7.39-25.11-14.21-35.56-20q-5.28-2.94-9.94-5.47v2.41q4,2.53,8.6,5.34c10.15,6.28,22.05,13.53,34.85,21.21l19.75,11.79,20.46,12.07,20.54,11.93,19.95,11.45c13,7.39,25.11,14.21,35.56,20,3.27,1.82,6.38,3.53,9.29,5.12.39-.58.77-1.17,1.15-1.76Q392.61,1785.59,387.77,1782.61Z" fill="#fff"/>
                    <path d="M407,1769.27c.37-.6.76-1.21,1.15-1.81q-4-2.48-8.42-5.22c-10.15-6.29-22-13.53-34.84-21.21l-19.76-11.79-20.46-12.06-20.54-11.93-19.95-11.45c-13-7.39-25.11-14.21-35.56-20-4.61-2.56-8.89-4.9-12.77-7-.34.51-.68,1-1,1.52,3.76,2.37,7.93,5,12.46,7.77,10.16,6.28,22.05,13.53,34.85,21.21l19.75,11.79,20.46,12.07,20.54,11.92,20,11.45c13,7.4,25.11,14.22,35.56,20Q402.88,1767.05,407,1769.27Z" fill="#fff"/>
                    <path d="M411.62,1741.87c-10.16-6.29-22.05-13.54-34.85-21.21L357,1708.87l-20.45-12.06L316,1684.88l-20-11.45c-13-7.39-25.11-14.21-35.56-20-5.19-2.88-10-5.48-14.21-7.78-.25.52-.49,1-.73,1.58,4.06,2.56,8.6,5.41,13.6,8.48,10.16,6.29,22,13.54,34.85,21.22l19.75,11.79,20.46,12.06,20.54,11.93,19.95,11.45c13,7.4,25.11,14.22,35.57,20,2.67,1.49,5.24,2.91,7.69,4.24.25-.7.52-1.41.76-2.12Z" fill="#fff"/>
                    <path d="M423.54,1721.5c-10.16-6.29-22.05-13.54-34.85-21.21l-19.75-11.79-20.46-12.07-20.54-11.92-20-11.45c-13-7.39-25.11-14.22-35.56-20l-3.15-1.74c-1,.35-1.94.72-2.9,1.1,1.52,1,3.09,1.93,4.72,2.92,10.15,6.29,22,13.54,34.84,21.21l19.75,11.8,20.46,12.06,20.54,11.93,20,11.45c13,7.4,25.1,14.22,35.56,20l2.19,1.22c.17-.89.35-1.78.51-2.67Z" fill="#fff"/>
                    <path d="M427.4,1699.69c0-1,.07-2.08.08-3.12l0-.38c-8.2-5-17.26-10.54-26.83-16.27l-19.75-11.79-20.46-12.07-20.54-11.92-20-11.45c-6-3.43-11.82-6.72-17.39-9.86l-3.38.77a5.53,5.53,0,0,1-1,.68c6.23,3.8,12.82,7.79,19.7,11.91L337.61,1648l20.45,12.07L378.6,1672l20,11.45C408.83,1689.29,418.58,1694.79,427.4,1699.69Z" fill="#fff"/>
                    <path d="M412,1660.44l-40.27-23.75-33.65-19.54c-1.28,0-2.56,0-3.85.11l36.33,21.42L411,1662.17c3.42,1.95,6.77,3.88,10,5.76-.69-1.17-1.42-2.31-2.21-3.43Z" fill="#fff"/>
                  </g>
                </g>
              </g>
              <path d="M226.19,1917.52a38.16,38.16,0,0,1,5.33-5.82c14.23-12.59,58.17-49.74,98-65.53,30.71-8.82,59.88-31,78.94-63.6,35.1-60,22.86-132.64-27.28-162s-119.49-4.42-154.59,55.55c-19,32.55-24.12,68.83-16.79,99.9,5.46,43-5.19,99-9.13,117.56a38.78,38.78,0,0,1-4.45,11.46l-7.3,12.46ZM236,1681.67c32-54.77,94.68-77.93,139.61-51.64s55.42,92.25,23.37,147-94.69,77.93-139.62,51.63S204,1736.44,236,1681.67Zm-23.86,213.88c4.3-18.63,9.48-45,10.09-76.41a3.92,3.92,0,0,1,7-2.39,88.64,88.64,0,0,0,55.11,32.36,3.91,3.91,0,0,1,1.32,7.23c-26.82,15.77-47.23,33.25-61.46,46.24a3.86,3.86,0,0,1-4.57.48l-5.63-3.29A3.89,3.89,0,0,1,212.16,1895.55Z" fill="#ee5450"/>
            </g>
          </g>
          <g>
            <path d="M1156.29,61a5.41,5.41,0,0,0,1.58-3.27,5.62,5.62,0,0,0,0-.92,5.37,5.37,0,0,0-.89-2.66l-.13-.2a5.39,5.39,0,0,0-1.31-1.38,5.65,5.65,0,0,0-2.09-.91,5.42,5.42,0,0,0-3.18.27l-3.06-4.62a5.49,5.49,0,0,0,1.58-3.27,5.71,5.71,0,0,0-.11-1.84,5.44,5.44,0,0,0-.75-1.74h0l-.14-.21a5.31,5.31,0,0,0-5.21-2.35,5.39,5.39,0,0,0-1.37.34l-3.06-4.63a5.47,5.47,0,0,0,1.61-4.19,5.73,5.73,0,0,0-.14-.91,5.25,5.25,0,0,0-.75-1.74l-.13-.21-.06-.07a5.34,5.34,0,0,0-1.25-1.3,5.54,5.54,0,0,0-1.65-.82,5.47,5.47,0,0,0-3.63.17l-3-4.62a5.39,5.39,0,0,0,1.16-1.76,5.3,5.3,0,0,0,.42-1.51,5.71,5.71,0,0,0-.11-1.84,5.44,5.44,0,0,0-.75-1.74l-.14-.2a5.39,5.39,0,0,0-1.31-1.38,5.48,5.48,0,0,0-5.27-.64L1121,7.61h-107.8a5.29,5.29,0,0,0,.87,3l.14.21a5.42,5.42,0,0,0,6.58,2l3.06,4.63a5.44,5.44,0,0,0-.72,6.85l.14.2a5.43,5.43,0,0,0,6.58,2l3.06,4.62a5.44,5.44,0,0,0-.73,6.85l.14.21a5.43,5.43,0,0,0,6.58,2l3.06,4.63a5.43,5.43,0,0,0-.72,6.84l.14.21a5.44,5.44,0,0,0,6.58,2l3.06,4.62a5.43,5.43,0,0,0-.72,6.85l.13.2a5.44,5.44,0,0,0,6.58,2l3.06,4.63a5.43,5.43,0,0,0-.72,6.84l.14.21a5.42,5.42,0,0,0,6.58,2l3.06,4.63a5.44,5.44,0,0,0-.72,6.85l.13.2a5.45,5.45,0,0,0,6.59,2l3.05,4.62a5.46,5.46,0,0,0-.72,6.85l.14.21a5.43,5.43,0,0,0,6.58,2l4.4,6.65a13.16,13.16,0,0,0,18.2,3.71l25.1-16.6L1157,85.85a13.14,13.14,0,0,0,3.71-18.2Z" fill="#fff" stroke="#fff" stroke-miterlimit="10" stroke-width="5"/>
            <g>
              <g>
                <polygon points="1026.66 7.61 1100.98 120.01 1161.93 79.7 1114.26 7.61 1026.66 7.61" fill="#01838f"/>
                <path d="M1156.29,61a5.43,5.43,0,0,0,.72-6.85l-.13-.2a5.44,5.44,0,0,0-6.58-2l-3.06-4.62a5.44,5.44,0,0,0,.72-6.85l-.14-.21a5.43,5.43,0,0,0-6.58-2l-3.06-4.63a5.43,5.43,0,0,0,.72-6.84l-.13-.21a5.45,5.45,0,0,0-6.59-2l-3-4.62a5.46,5.46,0,0,0,.72-6.85l-.14-.2a5.44,5.44,0,0,0-6.58-2L1121,7.61h-14l40.48,61.23a6,6,0,0,1-1.69,8.32l-42.57,28.15a6,6,0,0,1-8.32-1.7l-44-66.51s6.55-9.12,15.6-13.06c6.55-2.86,19.65-4.26,24.3-7.33a37.33,37.33,0,0,0,9.59-9.1h-87.17a5.29,5.29,0,0,0,.87,3l.14.21a5.42,5.42,0,0,0,6.58,2l3.06,4.63a5.44,5.44,0,0,0-.72,6.85l.14.2a5.43,5.43,0,0,0,6.58,2l3.06,4.62a5.44,5.44,0,0,0-.73,6.85l.14.21a5.43,5.43,0,0,0,6.58,2l3.06,4.63a5.43,5.43,0,0,0-.72,6.84l.14.21a5.44,5.44,0,0,0,6.58,2l3.06,4.62a5.43,5.43,0,0,0-.72,6.85l.13.2a5.44,5.44,0,0,0,6.58,2l3.06,4.63a5.43,5.43,0,0,0-.72,6.84l.14.21a5.42,5.42,0,0,0,6.58,2l3.06,4.63a5.44,5.44,0,0,0-.72,6.85l.13.2a5.45,5.45,0,0,0,6.59,2l3.05,4.62a5.46,5.46,0,0,0-.72,6.85l.14.21a5.43,5.43,0,0,0,6.58,2l4.4,6.65a13.16,13.16,0,0,0,18.2,3.71L1157,85.85a13.18,13.18,0,0,0,3.71-18.2Z" fill="#7bb353"/>
              </g>
              <path d="M1156.29,61a5.43,5.43,0,0,0,.72-6.85l-.13-.2a5.44,5.44,0,0,0-6.58-2l-3.06-4.62a5.44,5.44,0,0,0,.72-6.85l-.14-.21a5.43,5.43,0,0,0-6.58-2l-3.06-4.63a5.43,5.43,0,0,0,.72-6.84l-.13-.21a5.45,5.45,0,0,0-6.59-2l-3-4.62a5.46,5.46,0,0,0,.72-6.85l-.14-.2a5.44,5.44,0,0,0-6.58-2L1121,7.61h-51.83l8.71,13.18,46.58,70.44,7.42,11.22L1157,85.85a13.18,13.18,0,0,0,3.71-18.2Z" fill="#fff" opacity="0.31" style="mix-blend-mode: overlay"/>
            </g>
          </g>
          <g>
            <path d="M1037.43,1727.45a7.68,7.68,0,0,0,.75-2,7.31,7.31,0,0,0-.06-3.45,7.41,7.41,0,0,0-2.24-3.73l16.79-28.74c14.14-24.19,20.74-74.75,4.25-98.65l6.33-10.82,2.83,1.65c2.25,1.32,5,.92,6-.89l5.68-15.63c1-1.8.07-4.35-2.17-5.66l-22.79-13.32c-2.24-1.31-4.94-.91-6,.89L1036,1559.74c-1.06,1.8-.08,4.35,2.17,5.66l2.83,1.66-6.33,10.83c-28.91-2.64-69.71,27.93-83.85,52.12L934,1658.75a7.4,7.4,0,0,0-8.81,3.24l-.17.29a7.41,7.41,0,0,0,1.5,9.28l-3.82,6.53a7.43,7.43,0,0,0-8.82,3.25l-.17.29a7.41,7.41,0,0,0,1.5,9.27l-3.82,6.54a7.4,7.4,0,0,0-8.81,3.24l-.17.29a7.41,7.41,0,0,0,1.5,9.28l-3.82,6.53a7.43,7.43,0,0,0-8.82,3.25l-.17.29a7.41,7.41,0,0,0,1.5,9.27l-3.82,6.54a7.4,7.4,0,0,0-8.81,3.24l-.17.29a7.41,7.41,0,0,0,1.5,9.28l-3.82,6.53a7.43,7.43,0,0,0-8.82,3.25l-.17.29a7.41,7.41,0,0,0,1.5,9.27l-3.82,6.54a7.4,7.4,0,0,0-8.81,3.24l-.17.29a7.41,7.41,0,0,0,1.5,9.28l-3.82,6.53a7.43,7.43,0,0,0-8.82,3.25l-.17.29a7.41,7.41,0,0,0,1.5,9.27l-3.82,6.54a7.4,7.4,0,0,0-8.81,3.24l-.17.29a7.41,7.41,0,0,0,1.5,9.28l-5.49,9.39a18,18,0,0,0,6.43,24.52L872.48,1881l35.46,20.72a17.91,17.91,0,0,0,24.52-6.43l5.49-9.39a7.47,7.47,0,0,0,5,0,8.33,8.33,0,0,0,1.14-.52,7.38,7.38,0,0,0,2.72-2.69l.17-.29a7.53,7.53,0,0,0-1.5-9.27l3.82-6.54a7.38,7.38,0,0,0,5,0,7.13,7.13,0,0,0,2.18-1.23,7.29,7.29,0,0,0,1.68-2h0l.17-.29a7.59,7.59,0,0,0-1.5-9.28l3.82-6.53a7.41,7.41,0,0,0,8.82-3.25l.17-.29h0a1.17,1.17,0,0,0,.05-.11,7.45,7.45,0,0,0,.84-2.32,7.55,7.55,0,0,0,0-2.51,7.47,7.47,0,0,0-2.4-4.33l3.82-6.54a7.31,7.31,0,0,0,2.85.38,7.53,7.53,0,0,0,2.1-.42,7.13,7.13,0,0,0,2.18-1.23,7.29,7.29,0,0,0,1.68-2l.17-.29a7.41,7.41,0,0,0,.9-4.94,7.44,7.44,0,0,0-2.4-4.34l3.82-6.53a7.42,7.42,0,0,0,8.75-3.15s.05-.06.07-.1h0l.17-.29a7.39,7.39,0,0,0,.82-2.16,7.26,7.26,0,0,0,.18-1.53,7.44,7.44,0,0,0-.1-1.25,7.69,7.69,0,0,0-2.15-4.06c-.09-.09-.16-.19-.25-.27l3.82-6.54a7.38,7.38,0,0,0,4.95,0,7.13,7.13,0,0,0,2.18-1.23,7.29,7.29,0,0,0,1.68-2l.17-.29h0a7.38,7.38,0,0,0,.9-4.94,7.75,7.75,0,0,0-.67-2,9,9,0,0,0-.5-.85,7.81,7.81,0,0,0-.6-.79c-.2-.22-.4-.45-.63-.66l3.82-6.53a7.47,7.47,0,0,0,5,0,7.71,7.71,0,0,0,1.13-.52,7.33,7.33,0,0,0,2.73-2.69l.17-.29a7.22,7.22,0,0,0,.8-2.09,7.31,7.31,0,0,0-.06-3.45,6.81,6.81,0,0,0-.52-1.43,7.4,7.4,0,0,0-.5-.86,7.28,7.28,0,0,0-1.22-1.44l3.82-6.54a7.38,7.38,0,0,0,4.95,0,7.13,7.13,0,0,0,2.18-1.23,7.29,7.29,0,0,0,1.68-2h0l.17-.29a7.38,7.38,0,0,0,.9-4.94,7.44,7.44,0,0,0-2.4-4.34l3.82-6.53a7.43,7.43,0,0,0,8.82-3.25h0l.17-.29h0A1.17,1.17,0,0,0,1037.43,1727.45Z" fill="#fff" stroke="#fff" stroke-miterlimit="10" stroke-width="5"/>
            <g>
              <g>
                <rect x="1029.42" y="1560.4" width="25.8" height="59.84" transform="translate(944.8 -308.64) rotate(30.3)" fill="#398f4c"/>
                <rect x="894.29" y="1625" width="99.73" height="272.49" transform="translate(1017.62 -235.75) rotate(30.3)" fill="#01838f"/>
                <path d="M1037.21,1727.85l.17-.29a7.42,7.42,0,0,0-1.5-9.27l16.79-28.74c16.37-28,22.67-91.42-5.35-107.79h0c-28-16.38-80.16,20.23-96.53,48.25L934,1658.75a7.4,7.4,0,0,0-8.81,3.24l-.17.29a7.41,7.41,0,0,0,1.5,9.28l-3.82,6.53a7.43,7.43,0,0,0-8.82,3.25l-.17.29a7.41,7.41,0,0,0,1.5,9.27l-3.82,6.54a7.4,7.4,0,0,0-8.81,3.24l-.17.29a7.41,7.41,0,0,0,1.5,9.28l-3.82,6.53a7.43,7.43,0,0,0-8.82,3.25l-.17.29a7.41,7.41,0,0,0,1.5,9.27l-3.82,6.54a7.4,7.4,0,0,0-8.81,3.24l-.17.29a7.41,7.41,0,0,0,1.5,9.28l-3.82,6.53a7.43,7.43,0,0,0-8.82,3.25l-.17.29a7.41,7.41,0,0,0,1.5,9.27l-3.82,6.54a7.4,7.4,0,0,0-8.81,3.24l-.17.29a7.41,7.41,0,0,0,1.5,9.28l-3.82,6.53a7.43,7.43,0,0,0-8.82,3.25l-.17.29a7.41,7.41,0,0,0,1.5,9.27l-3.82,6.54a7.4,7.4,0,0,0-8.81,3.24l-.17.29a7.41,7.41,0,0,0,1.5,9.28l-5.49,9.39a18,18,0,0,0,6.43,24.52l70.93,41.45a18,18,0,0,0,24.52-6.43l5.49-9.39a7.43,7.43,0,0,0,8.82-3.25l.17-.29a7.42,7.42,0,0,0-1.5-9.27l3.82-6.54a7.4,7.4,0,0,0,8.81-3.24l.17-.29a7.42,7.42,0,0,0-1.5-9.28l3.82-6.53a7.43,7.43,0,0,0,8.82-3.25l.17-.29a7.42,7.42,0,0,0-1.5-9.27l3.82-6.54a7.4,7.4,0,0,0,8.81-3.24l.17-.29a7.42,7.42,0,0,0-1.5-9.28l3.82-6.53a7.43,7.43,0,0,0,8.82-3.25l.17-.29a7.42,7.42,0,0,0-1.5-9.27l3.82-6.54a7.41,7.41,0,0,0,8.81-3.24l.17-.29a7.42,7.42,0,0,0-1.5-9.28l3.82-6.53a7.43,7.43,0,0,0,8.82-3.25l.17-.29a7.42,7.42,0,0,0-1.5-9.27l3.82-6.54a7.41,7.41,0,0,0,8.81-3.24l.17-.29a7.43,7.43,0,0,0-1.5-9.28l3.82-6.53A7.43,7.43,0,0,0,1037.21,1727.85ZM923,1879.74a8.22,8.22,0,0,1-11.21,2.94l-60.13-35.14a8.23,8.23,0,0,1-2.94-11.21l54.91-94s15.11,2.53,25.4,11.22c7.45,6.3,17.06,21.5,23.62,25.34,13.56,7.92,25.26,6.85,25.26,6.85Z" fill="#7bb353"/>
                <path d="M1038.14,1565.4l27.94,16.33c2.25,1.32,5,.92,6-.89l5.68-15.63c1-1.8.07-4.35-2.17-5.66l-22.79-13.32c-2.24-1.31-4.94-.91-6,.89L1036,1559.74C1034.91,1561.54,1035.89,1564.09,1038.14,1565.4Z" fill="#434343"/>
                <path d="M957.78,1740.63l56.52-64.72-23.25-1.44,25.22-28.88-20.13.19-39,44.72,23.33,1.56-23.57,48A.56.56,0,0,0,957.78,1740.63Z" fill="#01838f"/>
              </g>
              <path d="M881.74,1865.11,872.48,1881l35.46,20.72a18,18,0,0,0,24.52-6.43l5.49-9.39a7.43,7.43,0,0,0,8.82-3.25l.17-.29a7.42,7.42,0,0,0-1.5-9.27l3.82-6.54a7.4,7.4,0,0,0,8.81-3.24l.17-.29a7.42,7.42,0,0,0-1.5-9.28l3.82-6.53a7.43,7.43,0,0,0,8.82-3.25l.17-.29a7.42,7.42,0,0,0-1.5-9.27l3.82-6.54a7.4,7.4,0,0,0,8.81-3.24l.17-.29a7.42,7.42,0,0,0-1.5-9.28l3.82-6.53a7.43,7.43,0,0,0,8.82-3.25l.17-.29a7.42,7.42,0,0,0-1.5-9.27l3.82-6.54a7.41,7.41,0,0,0,8.81-3.24l.17-.29a7.42,7.42,0,0,0-1.5-9.28l3.82-6.53a7.43,7.43,0,0,0,8.82-3.25l.17-.29a7.42,7.42,0,0,0-1.5-9.27l3.82-6.54a7.41,7.41,0,0,0,8.81-3.24l.17-.29a7.43,7.43,0,0,0-1.5-9.28l3.82-6.53a7.43,7.43,0,0,0,8.82-3.25l.17-.29a7.42,7.42,0,0,0-1.5-9.27l16.79-28.74c16.37-28,22.67-91.42-5.35-107.79h0L939.89,1765.6" fill="#fff" opacity="0.31" style="mix-blend-mode: overlay"/>
            </g>
          </g>
          <g>
            <path d="M828.43,309.82a28.92,28.92,0,0,0-20.33-25c-20.28-6.21-51.51-16.55-64.8-22.49-20-8.93-24.46-38.93-24.46-38.93L699.12,7.61H683.21l19.29,211c3.24,35.4,10.61,54.16,16.68,63.91a30.12,30.12,0,0,0,14.68,12.13l80.57,31.2a10.69,10.69,0,0,0,14.47-10.95Z" fill="#6d4c42" stroke="#fff" stroke-miterlimit="10" stroke-width="5"/>
            <path d="M828.43,309.82a28.92,28.92,0,0,0-20.33-25c-20.28-6.21-51.51-16.55-64.8-22.49-20-8.93-24.46-38.93-24.46-38.93L699.12,7.61H683.21l19.29,211c3.24,35.4,10.61,54.16,16.68,63.91a30.12,30.12,0,0,0,14.68,12.13l80.57,31.2a10.69,10.69,0,0,0,14.47-10.95Z" fill="#01838f"/>
            <g clip-path="url(#e)">
              <g>
                <rect x="783.78" y="302.08" width="49.16" height="5.42" transform="translate(203.86 921.99) rotate(-66.25)" fill="#434343"/>
                <rect x="772.98" y="298.46" width="47.07" height="5.42" transform="translate(371.48 1039.07) rotate(-80.77)" fill="#434343"/>
                <rect x="764.69" y="295.85" width="48.57" height="5.42" transform="translate(295.31 982.61) rotate(-74.91)" fill="#434343"/>
                <rect x="759.01" y="289.8" width="47.65" height="5.42" transform="translate(389.64 1029.93) rotate(-82.42)" fill="#434343"/>
                <rect x="751.91" y="289.33" width="41.58" height="5.42" transform="translate(267.36 945.48) rotate(-72.99)" fill="#434343"/>
                <rect x="737.64" y="287.04" width="51.53" height="5.42" transform="translate(280.99 948.55) rotate(-74.57)" fill="#434343"/>
                <rect x="731.42" y="283.57" width="46.22" height="5.42" transform="translate(246.98 913.71) rotate(-71.81)" fill="#434343"/>
                <rect x="717.62" y="279.96" width="52.6" height="5.42" transform="translate(343.4 970.34) rotate(-80.59)" fill="#434343"/>
              </g>
            </g>
          </g>
        </g>
        <g>
          <path d="M610.76,271.91C347.59,271.91,118.67,418.4,1,634.26v663.39C118.67,1513.51,347.59,1660,610.76,1660c248.43,0,466.37-130.53,589-326.75V598.66C1077.13,402.44,859.19,271.91,610.76,271.91Z" fill="#57cadc" opacity="0.74"/>
          <path d="M598.85,260C344.3,260,121.78,397.05,1,601.38v705.33C121.78,1511,344.3,1648.09,598.85,1648.09c256.69,0,480.83-139.36,600.9-346.55v-695C1079.68,399.36,855.54,260,598.85,260Z" fill="#e2f4f7" opacity="0.74"/>
          <circle cx="598.85" cy="954.04" r="596.81" fill="#e2f4f7" opacity="0.74"/>
        </g>
      </g>
      <g>
        <g>
          <path d="M421.65,626a41.7,41.7,0,0,0,21.15,6c12.06,0,19.11-6.37,19.11-15.59,0-8.54-4.88-13.43-17.21-18.17-14.92-5.29-24.14-13-24.14-25.89,0-14.24,11.8-24.82,29.56-24.82,9.35,0,16.13,2.17,20.2,4.48l-3.26,9.62a36.47,36.47,0,0,0-17.35-4.33c-12.47,0-17.22,7.45-17.22,13.69,0,8.54,5.56,12.74,18.17,17.62,15.46,6,23.32,13.43,23.32,26.85,0,14.1-10.44,26.3-32,26.3-8.81,0-18.43-2.58-23.31-5.83Z" fill="#1f3260"/>
          <path d="M490.12,550.08a136.59,136.59,0,0,1,22.64-1.76c11.66,0,20.2,2.71,25.62,7.59,5,4.34,8,11,8,19.12s-2.44,14.77-7,19.52c-6.24,6.64-16.41,10-27.93,10a40.51,40.51,0,0,1-9.49-.81v36.6H490.12Zm11.79,44.06a39.47,39.47,0,0,0,9.76,1c14.24,0,22.91-6.91,22.91-19.52,0-12.07-8.54-17.9-21.55-17.9a49.64,49.64,0,0,0-11.12,1Z" fill="#1f3260"/>
          <path d="M640.33,593.74c0,31.45-19.11,48.12-42.43,48.12-24.13,0-41.08-18.7-41.08-46.36,0-29,18-48,42.43-48C624.2,547.5,640.33,566.62,640.33,593.74Zm-70.9,1.49c0,19.52,10.57,37,29.15,37s29.28-17.22,29.28-38c0-18.17-9.49-37.15-29.15-37.15S569.43,575.16,569.43,595.23Z" fill="#1f3260"/>
          <path d="M655.66,550.22a122.76,122.76,0,0,1,22.64-1.9c12.61,0,20.74,2.3,26.44,7.46,4.6,4.06,7.18,10.3,7.18,17.35,0,12.06-7.59,20.06-17.22,23.32v.4c7,2.44,11.26,8.95,13.42,18.44,3,12.75,5.16,21.56,7,25.08H703c-1.49-2.57-3.52-10.44-6.1-21.82-2.71-12.61-7.59-17.36-18.3-17.76H667.45v39.58H655.66Zm11.79,41.62h12.07c12.61,0,20.61-6.92,20.61-17.36,0-11.79-8.55-16.94-21-17.08a48.08,48.08,0,0,0-11.66,1.09Z" fill="#1f3260"/>
          <path d="M747.17,559H719.38V549H787v10H759.1v81.34H747.17Z" fill="#1f3260"/>
        </g>
        <g>
          <path d="M544.3,389.3v83.5q0,14.31-6.4,25.07a41.65,41.65,0,0,1-18.49,16.51q-12.09,5.75-28.6,5.74-24.88,0-38.66-12.76t-13.77-34.91V389.3h27.28v79q0,14.93,6,21.89t19.86,7q13.41,0,19.46-7t6-22V389.3Z" fill="#1f3260"/>
          <path d="M630.72,410.22q-15.45,0-23.92,11.61t-8.48,32.35q0,43.17,32.4,43.16,13.59,0,32.92-6.79V513.5q-15.89,6.62-35.48,6.62-28.15,0-43.08-17.08t-14.91-49q0-20.12,7.32-35.26a53,53,0,0,1,21-23.21q13.73-8.08,32.18-8.08,18.79,0,37.78,9.09l-8.83,22.24a149,149,0,0,0-14.56-6A43.69,43.69,0,0,0,630.72,410.22Z" fill="#1f3260"/>
          <path d="M691.09,518.35v-129h27.37V495.75H770.8v22.6Z" fill="#1f3260"/>
        </g>
      </g>
      <line x1="204.56" y1="661.26" x2="995.44" y2="661.26" fill="#1f3260" stroke="#1f3260" stroke-miterlimit="10"/>
    </g>
  </g>
</svg>
